<svg width="430" height="193" viewBox="0 0 430 193" fill="none" xmlns="http://www.w3.org/2000/svg">
<path d="M26.8262 42.3105L27.1041 41.3499L27.1024 41.3495L26.8262 42.3105ZM9.24805 33.8145L8.56757 34.5473L8.5744 34.5535L9.24805 33.8145ZM10.4688 7.44727L11.1017 8.22147L11.1023 8.22097L10.4688 7.44727ZM40.9863 4.76172L40.5422 5.65768L40.5452 5.65917L40.9863 4.76172ZM49.873 12.5742L49.026 13.1057L49.0297 13.1116L49.873 12.5742ZM53.0469 23.4629V24.4629H54.0469V23.4629H53.0469ZM43.623 23.4629H42.623V24.4629H43.623V23.4629ZM39.5215 13.3555L38.8506 14.097L38.8555 14.1014L39.5215 13.3555ZM17.1094 12.7207L17.7268 13.5074L17.7281 13.5063L17.1094 12.7207ZM16.9141 28.541L16.2769 29.3118L16.2825 29.3164L16.2881 29.3209L16.9141 28.541ZM29.4629 34.0098L29.1917 34.9723L29.1931 34.9727L29.4629 34.0098ZM43.3301 39.5273L42.8106 40.3819L42.8205 40.3878L43.3301 39.5273ZM50.752 46.5098L49.8935 47.0227L49.8982 47.0304L50.752 46.5098ZM46.4551 69.8008L47.0642 70.5938L47.0678 70.5911L46.4551 69.8008ZM14.7656 72.1934L14.3582 73.1066L14.3641 73.1092L14.7656 72.1934ZM4.95117 64.4785L4.13192 65.052L4.13579 65.0574L4.95117 64.4785ZM1.5332 53.3945V52.3945H0.533203V53.3945H1.5332ZM10.957 53.3945H11.957V52.3945H10.957V53.3945ZM15.6934 63.5996L15.0716 64.3829L15.0805 64.3898L15.6934 63.5996ZM40.1074 47.9746L39.4891 48.7606L39.4957 48.7657L40.1074 47.9746ZM27.1024 41.3495C19.122 39.0555 13.4341 36.277 9.9217 33.0754L8.5744 34.5535C12.4188 38.0577 18.4497 40.9432 26.5499 43.2716L27.1024 41.3495ZM9.9285 33.0817C6.48515 29.8843 4.7793 25.9826 4.7793 21.3145H2.7793C2.7793 26.5422 4.71928 30.9738 8.5676 34.5472L9.9285 33.0817ZM4.7793 21.3145C4.7793 16.0254 6.86662 11.6837 11.1017 8.22147L9.83582 6.67306C5.15161 10.5025 2.7793 15.4056 2.7793 21.3145H4.7793ZM11.1023 8.22097C15.377 4.72064 20.9632 2.92969 27.9492 2.92969V0.929688C20.6124 0.929688 14.5448 2.81712 9.83521 6.67356L11.1023 8.22097ZM27.9492 2.92969C32.7009 2.92969 36.8908 3.84761 40.5422 5.65767L41.4305 3.86577C37.4646 1.89979 32.9632 0.929688 27.9492 0.929688V2.92969ZM40.5452 5.65917C44.2356 7.47306 47.0503 9.95704 49.026 13.1057L50.7201 12.0427C48.5291 8.55077 45.4194 5.82642 41.4274 3.86427L40.5452 5.65917ZM49.0297 13.1116C51.0432 16.2713 52.0469 19.7144 52.0469 23.4629H54.0469C54.0469 19.3338 52.9346 15.5178 50.7164 12.0368L49.0297 13.1116ZM53.0469 22.4629H43.623V24.4629H53.0469V22.4629ZM44.623 23.4629C44.623 18.935 43.1715 15.2738 40.1875 12.6095L38.8555 14.1014C41.3402 16.3199 42.623 19.397 42.623 23.4629H44.623ZM40.1924 12.6139C37.2179 9.92272 33.0895 8.64453 27.9492 8.64453V10.6445C32.7698 10.6445 36.3563 11.8403 38.8506 14.097L40.1924 12.6139ZM27.9492 8.64453C23.1894 8.64453 19.3292 9.69977 16.4907 11.9351L17.7281 13.5063C20.0979 11.6401 23.4642 10.6445 27.9492 10.6445V8.64453ZM16.492 11.934C13.6512 14.1635 12.252 17.2846 12.252 21.168H14.252C14.252 17.8248 15.4244 15.3143 17.7268 13.5074L16.492 11.934ZM12.252 21.168C12.252 24.3935 13.6301 27.1237 16.2769 29.3118L17.5512 27.7703C15.3152 25.9219 14.252 23.7367 14.252 21.168H12.252ZM16.2881 29.3209C18.9244 31.4369 23.2683 33.3033 29.1917 34.9723L29.7341 33.0472C23.8737 31.396 19.8516 29.6165 17.54 27.7611L16.2881 29.3209ZM29.1931 34.9727C35.0745 36.6208 39.5998 38.4302 42.8107 40.3819L43.8495 38.6728C40.4197 36.588 35.7002 34.7191 29.7327 33.0469L29.1931 34.9727ZM42.8205 40.3878C46.0656 42.3096 48.403 44.5283 49.8935 47.0227L51.6104 45.9968C49.9108 43.1527 47.3003 40.7164 43.8397 38.6669L42.8205 40.3878ZM49.8982 47.0304C51.416 49.5197 52.1934 52.4749 52.1934 55.9336H54.1934C54.1934 52.1658 53.3431 48.8384 51.6057 45.9892L49.8982 47.0304ZM52.1934 55.9336C52.1934 61.3911 50.0864 65.7198 45.8423 69.0105L47.0678 70.5911C51.8082 66.9156 54.1934 61.9995 54.1934 55.9336H52.1934ZM45.8459 69.0077C41.578 72.286 35.8087 73.9766 28.4375 73.9766V75.9766C36.1054 75.9766 42.3478 74.2166 47.0642 70.5938L45.8459 69.0077ZM28.4375 73.9766C23.6849 73.9766 19.2652 73.0744 15.1672 71.2775L14.3641 73.1092C18.7295 75.0233 23.4244 75.9766 28.4375 75.9766V73.9766ZM15.1731 71.2801C11.0781 69.4532 7.95848 66.9868 5.76655 63.8996L4.13579 65.0574C6.56626 68.4806 9.98958 71.1575 14.3582 73.1066L15.1731 71.2801ZM5.7704 63.9051C3.61437 60.825 2.5332 57.3323 2.5332 53.3945H0.533203C0.533203 57.725 1.73068 61.6216 4.13194 65.052L5.7704 63.9051ZM1.5332 54.3945H10.957V52.3945H1.5332V54.3945ZM9.95703 53.3945C9.95703 57.9734 11.6575 61.6727 15.0716 64.3828L16.3151 62.8164C13.4141 60.5135 11.957 57.4094 11.957 53.3945H9.95703ZM15.0805 64.3898C18.4942 67.0372 22.9795 68.3105 28.4375 68.3105V66.3105C23.2835 66.3105 19.2727 65.11 16.3062 62.8094L15.0805 64.3898ZM28.4375 68.3105C33.5023 68.3105 37.544 67.2804 40.4223 65.0773L39.2066 63.4891C36.8115 65.3225 33.2686 66.3105 28.4375 66.3105V68.3105ZM40.4223 65.0773C43.32 62.8593 44.7695 59.8079 44.7695 56.0312H42.7695C42.7695 59.2208 41.5824 61.6707 39.2066 63.4891L40.4223 65.0773ZM44.7695 56.0312C44.7695 52.284 43.4392 49.2871 40.7192 47.1836L39.4957 48.7657C41.6584 50.4382 42.7695 52.8124 42.7695 56.0312H44.7695ZM40.7257 47.1887C38.1212 45.1398 33.5311 43.2095 27.1041 41.3499L26.5482 43.2711C32.9468 45.1225 37.2108 46.9683 39.4891 48.7606L40.7257 47.1887ZM117.549 51.4414L118.542 51.5575L118.673 50.4414H117.549V51.4414ZM109.199 68.873L109.857 69.6259L109.858 69.6256L109.199 68.873ZM70.3809 65.9434L69.6143 66.5856L69.6164 66.588L70.3809 65.9434ZM66.3281 17.5059L65.4245 17.0775L65.4222 17.0823L66.3281 17.5059ZM76.3867 5.98242L76.9115 6.83365L76.9161 6.83078L76.3867 5.98242ZM109.59 8.27734L108.909 9.01014L108.912 9.01275L109.59 8.27734ZM117.549 25.7578V26.7578H118.654L118.544 25.6579L117.549 25.7578ZM108.125 25.7578L107.135 25.9L107.258 26.7578H108.125V25.7578ZM102.803 13.4531L102.118 14.1819L102.122 14.1859L102.803 13.4531ZM77.3145 16.2852L76.5229 15.674L76.5201 15.6777L77.3145 16.2852ZM102.559 63.7949L103.205 64.558L103.206 64.5573L102.559 63.7949ZM108.125 51.4414V50.4414H107.269L107.137 51.2877L108.125 51.4414ZM116.556 51.3253C115.699 58.6543 113.003 64.2157 108.541 68.1205L109.858 69.6256C114.77 65.3272 117.641 59.2676 118.542 51.5575L116.556 51.3253ZM108.541 68.1201C104.111 71.9926 98.1644 73.9766 90.5957 73.9766V75.9766C98.5218 75.9766 104.978 73.8915 109.857 69.6259L108.541 68.1201ZM90.5957 73.9766C82.4698 73.9766 76.0196 71.0791 71.1453 65.2987L69.6164 66.588C74.8984 72.8519 81.9247 75.9766 90.5957 75.9766V73.9766ZM71.1474 65.3011C66.2913 59.5051 63.8125 51.6979 63.8125 41.7734H61.8125C61.8125 52.0313 64.3793 60.3373 69.6143 66.5856L71.1474 65.3011ZM63.8125 41.7734V34.9375H61.8125V41.7734H63.8125ZM63.8125 34.9375C63.8125 28.4478 64.9631 22.7866 67.234 17.9294L65.4222 17.0823C63.0056 22.2512 61.8125 28.2111 61.8125 34.9375H63.8125ZM67.2317 17.9342C69.5331 13.0793 72.7615 9.39233 76.9115 6.83364L75.8619 5.1312C71.3531 7.91105 67.8758 11.9064 65.4245 17.0775L67.2317 17.9342ZM76.9161 6.83078C81.0688 4.23929 85.8939 2.92969 91.4258 2.92969V0.929688C85.5644 0.929688 80.3635 2.3219 75.8573 5.13407L76.9161 6.83078ZM91.4258 2.92969C98.7825 2.92969 104.575 4.98535 108.909 9.01014L110.27 7.54455C105.49 3.10579 99.1732 0.929688 91.4258 0.929688V2.92969ZM108.912 9.01275C113.254 13.013 115.824 18.5935 116.554 25.8577L118.544 25.6579C117.776 18.0133 115.041 11.9401 110.267 7.54194L108.912 9.01275ZM117.549 24.7578H108.125V26.7578H117.549V24.7578ZM109.115 25.6156C108.285 19.8399 106.454 15.479 103.483 12.7203L102.122 14.1859C104.62 16.5054 106.337 20.3476 107.135 25.9L109.115 25.6156ZM103.488 12.7244C100.548 9.96157 96.4802 8.64453 91.4258 8.64453V10.6445C96.137 10.6445 99.6542 11.8666 102.118 14.1818L103.488 12.7244ZM91.4258 8.64453C85.1518 8.64453 80.1452 10.9823 76.5229 15.674L78.106 16.8963C81.3196 12.7339 85.7206 10.6445 91.4258 10.6445V8.64453ZM76.5201 15.6777C72.9519 20.3439 71.2363 26.8899 71.2363 35.1816H73.2363C73.2363 27.1323 74.9062 21.0806 78.1088 16.8926L76.5201 15.6777ZM71.2363 35.1816V42.0664H73.2363V35.1816H71.2363ZM71.2363 42.0664C71.2363 49.9111 72.8739 56.2723 76.2538 61.052L77.8868 59.8972C74.8214 55.5623 73.2363 49.6514 73.2363 42.0664H71.2363ZM76.2538 61.052C79.6722 65.8861 84.4915 68.3105 90.5957 68.3105V66.3105C85.1114 66.3105 80.9137 64.1777 77.8868 59.8972L76.2538 61.052ZM90.5957 68.3105C95.9394 68.3105 100.193 67.1095 103.205 64.558L101.912 63.0319C99.3906 65.1679 95.6687 66.3105 90.5957 66.3105V68.3105ZM103.206 64.5573C106.272 61.9548 108.186 57.5548 109.113 51.5951L107.137 51.2877C106.241 57.0468 104.444 60.8825 101.911 63.0325L103.206 64.5573ZM108.125 52.4414H117.549V50.4414H108.125V52.4414ZM156.465 45.2402L157.346 44.7675L157.063 44.2402H156.465V45.2402ZM139.766 45.2402V44.2402H138.766V45.2402H139.766ZM139.766 74V75H140.766V74H139.766ZM130.342 74H129.342V75H130.342V74ZM130.342 2.90625V1.90625H129.342V2.90625H130.342ZM172.334 8.375L171.687 9.13751L171.69 9.13991L172.334 8.375ZM175.215 35.8652L174.408 35.2742L174.404 35.2795L175.215 35.8652ZM165.254 43.2383L164.897 42.304L163.821 42.7147L164.379 43.7225L165.254 43.2383ZM181.953 73.4141H182.953V73.1558L182.828 72.9299L181.953 73.4141ZM181.953 74V75H182.953V74H181.953ZM171.895 74L171.013 74.4728L171.296 75H171.895V74ZM139.766 37.5742H138.766V38.5742H139.766V37.5742ZM165.254 33.9609L164.597 33.2067L164.593 33.2106L165.254 33.9609ZM165.449 14.1855L164.78 14.9289L164.785 14.933L165.449 14.1855ZM154.121 10.6211L154.128 9.62109H154.121V10.6211ZM139.766 10.6211V9.62109H138.766V10.6211H139.766ZM156.465 44.2402H139.766V46.2402H156.465V44.2402ZM138.766 45.2402V74H140.766V45.2402H138.766ZM139.766 73H130.342V75H139.766V73ZM131.342 74V2.90625H129.342V74H131.342ZM130.342 3.90625H153.877V1.90625H130.342V3.90625ZM153.877 3.90625C161.746 3.90625 167.634 5.69846 171.687 9.13751L172.981 7.61249C168.44 3.75987 162.023 1.90625 153.877 1.90625V3.90625ZM171.69 9.13991C175.742 12.5526 177.828 17.5475 177.828 24.293H179.828C179.828 17.1062 177.584 11.4891 172.978 7.61009L171.69 9.13991ZM177.828 24.293C177.828 28.5269 176.68 32.1729 174.408 35.2742L176.022 36.4563C178.567 32.9821 179.828 28.9132 179.828 24.293H177.828ZM174.404 35.2795C172.156 38.3901 169.003 40.7369 164.897 42.304L165.61 44.1725C170.033 42.4845 173.521 39.9159 176.025 36.451L174.404 35.2795ZM164.379 43.7225L181.078 73.8983L182.828 72.9299L166.129 42.7541L164.379 43.7225ZM180.953 73.4141V74H182.953V73.4141H180.953ZM181.953 73H171.895V75H181.953V73ZM172.776 73.5272L157.346 44.7675L155.584 45.713L171.013 74.4728L172.776 73.5272ZM139.766 38.5742H154.17V36.5742H139.766V38.5742ZM154.17 38.5742C158.999 38.5742 162.952 37.3217 165.915 34.7113L164.593 33.2106C162.087 35.4179 158.651 36.5742 154.17 36.5742V38.5742ZM165.911 34.7152C168.919 32.096 170.404 28.5861 170.404 24.293H168.404C168.404 28.0728 167.123 31.0082 164.597 33.2067L165.911 34.7152ZM170.404 24.293C170.404 19.6884 169.014 16.0167 166.114 13.4381L164.785 14.933C167.157 17.0419 168.404 20.1084 168.404 24.293H170.404ZM166.118 13.4423C163.269 10.8782 159.22 9.65462 154.128 9.62112L154.115 11.6211C158.918 11.6527 162.421 12.8054 164.78 14.9288L166.118 13.4423ZM154.121 9.62109H139.766V11.6211H154.121V9.62109ZM138.766 10.6211V37.5742H140.766V10.6211H138.766ZM231.27 55.4453L232.209 55.1018L231.969 54.4453H231.27V55.4453ZM201.484 55.4453V54.4453H200.782L200.544 55.1062L201.484 55.4453ZM194.795 74V75H195.497L195.736 74.3392L194.795 74ZM185.127 74L184.193 73.6433L183.675 75H185.127V74ZM212.275 2.90625V1.90625H211.587L211.341 2.54951L212.275 2.90625ZM220.479 2.90625L221.413 2.54895L221.167 1.90625H220.479V2.90625ZM247.676 74V75H249.129L248.61 73.6427L247.676 74ZM238.057 74L237.117 74.3435L237.358 75H238.057V74ZM204.316 47.7305L203.376 47.3895L202.89 48.7305H204.316V47.7305ZM228.486 47.7305V48.7305H229.915L229.426 47.3883L228.486 47.7305ZM216.377 14.4785L217.317 14.1363L216.375 11.5509L215.437 14.1375L216.377 14.4785ZM231.27 54.4453H201.484V56.4453H231.27V54.4453ZM200.544 55.1062L193.854 73.6608L195.736 74.3392L202.425 55.7845L200.544 55.1062ZM194.795 73H185.127V75H194.795V73ZM186.061 74.3567L213.21 3.26299L211.341 2.54951L184.193 73.6433L186.061 74.3567ZM212.275 3.90625H220.479V1.90625H212.275V3.90625ZM219.545 3.26355L246.742 74.3573L248.61 73.6427L221.413 2.54895L219.545 3.26355ZM247.676 73H238.057V75H247.676V73ZM238.996 73.6565L232.209 55.1018L230.33 55.7888L237.117 74.3435L238.996 73.6565ZM204.316 48.7305H228.486V46.7305H204.316V48.7305ZM229.426 47.3883L217.317 14.1363L215.437 14.8207L227.547 48.0727L229.426 47.3883ZM215.437 14.1375L203.376 47.3895L205.256 48.0714L217.317 14.8195L215.437 14.1375ZM300.02 10.6211V11.6211H301.02V10.6211H300.02ZM277.168 10.6211V9.62109H276.168V10.6211H277.168ZM277.168 74V75H278.168V74H277.168ZM267.842 74H266.842V75H267.842V74ZM267.842 10.6211H268.842V9.62109H267.842V10.6211ZM245.039 10.6211H244.039V11.6211H245.039V10.6211ZM245.039 2.90625V1.90625H244.039V2.90625H245.039ZM300.02 2.90625H301.02V1.90625H300.02V2.90625ZM300.02 9.62109H277.168V11.6211H300.02V9.62109ZM276.168 10.6211V74H278.168V10.6211H276.168ZM277.168 73H267.842V75H277.168V73ZM268.842 74V10.6211H266.842V74H268.842ZM267.842 9.62109H245.039V11.6211H267.842V9.62109ZM246.039 10.6211V2.90625H244.039V10.6211H246.039ZM245.039 3.90625H300.02V1.90625H245.039V3.90625ZM299.02 2.90625V10.6211H301.02V2.90625H299.02ZM361.494 51.4414L362.487 51.5575L362.618 50.4414H361.494V51.4414ZM353.145 68.873L353.803 69.6259L353.803 69.6256L353.145 68.873ZM314.326 65.9434L313.56 66.5856L313.562 66.588L314.326 65.9434ZM310.273 17.5059L309.37 17.0775L309.368 17.0823L310.273 17.5059ZM320.332 5.98242L320.857 6.83365L320.861 6.83078L320.332 5.98242ZM353.535 8.27734L352.855 9.01014L352.858 9.01275L353.535 8.27734ZM361.494 25.7578V26.7578H362.6L362.489 25.6579L361.494 25.7578ZM352.07 25.7578L351.08 25.9L351.204 26.7578H352.07V25.7578ZM346.748 13.4531L346.063 14.1819L346.068 14.1859L346.748 13.4531ZM321.26 16.2852L320.468 15.674L320.465 15.6777L321.26 16.2852ZM346.504 63.7949L347.15 64.558L347.151 64.5573L346.504 63.7949ZM352.07 51.4414V50.4414H351.214L351.082 51.2877L352.07 51.4414ZM360.501 51.3253C359.644 58.6543 356.949 64.2157 352.486 68.1205L353.803 69.6256C358.715 65.3272 361.586 59.2676 362.487 51.5575L360.501 51.3253ZM352.486 68.1201C348.056 71.9926 342.11 73.9766 334.541 73.9766V75.9766C342.467 75.9766 348.923 73.8915 353.803 69.6259L352.486 68.1201ZM334.541 73.9766C326.415 73.9766 319.965 71.0791 315.091 65.2987L313.562 66.588C318.844 72.8519 325.87 75.9766 334.541 75.9766V73.9766ZM315.093 65.3011C310.237 59.5051 307.758 51.6979 307.758 41.7734H305.758C305.758 52.0313 308.325 60.3373 313.56 66.5856L315.093 65.3011ZM307.758 41.7734V34.9375H305.758V41.7734H307.758ZM307.758 34.9375C307.758 28.4478 308.908 22.7866 311.179 17.9294L309.368 17.0823C306.951 22.2512 305.758 28.2111 305.758 34.9375H307.758ZM311.177 17.9342C313.478 13.0793 316.707 9.39233 320.857 6.83364L319.807 5.1312C315.298 7.91105 311.821 11.9064 309.37 17.0775L311.177 17.9342ZM320.861 6.83078C325.014 4.23929 329.839 2.92969 335.371 2.92969V0.929688C329.51 0.929688 324.309 2.3219 319.803 5.13407L320.861 6.83078ZM335.371 2.92969C342.728 2.92969 348.52 4.98535 352.855 9.01014L354.216 7.54455C349.435 3.10579 343.119 0.929688 335.371 0.929688V2.92969ZM352.858 9.01275C357.199 13.013 359.77 18.5935 360.499 25.8577L362.489 25.6579C361.721 18.0133 358.986 11.9401 354.213 7.54194L352.858 9.01275ZM361.494 24.7578H352.07V26.7578H361.494V24.7578ZM353.06 25.6156C352.23 19.8399 350.399 15.479 347.428 12.7203L346.068 14.1859C348.565 16.5054 350.283 20.3476 351.08 25.9L353.06 25.6156ZM347.433 12.7244C344.493 9.96157 340.425 8.64453 335.371 8.64453V10.6445C340.082 10.6445 343.6 11.8666 346.063 14.1818L347.433 12.7244ZM335.371 8.64453C329.097 8.64453 324.091 10.9823 320.468 15.674L322.051 16.8963C325.265 12.7339 329.666 10.6445 335.371 10.6445V8.64453ZM320.465 15.6777C316.897 20.3439 315.182 26.8899 315.182 35.1816H317.182C317.182 27.1323 318.852 21.0806 322.054 16.8926L320.465 15.6777ZM315.182 35.1816V42.0664H317.182V35.1816H315.182ZM315.182 42.0664C315.182 49.9111 316.819 56.2723 320.199 61.052L321.832 59.8972C318.767 55.5623 317.182 49.6514 317.182 42.0664H315.182ZM320.199 61.052C323.618 65.8861 328.437 68.3105 334.541 68.3105V66.3105C329.057 66.3105 324.859 64.1777 321.832 59.8972L320.199 61.052ZM334.541 68.3105C339.885 68.3105 344.138 67.1095 347.15 64.558L345.858 63.0319C343.336 65.1679 339.614 66.3105 334.541 66.3105V68.3105ZM347.151 64.5573C350.217 61.9548 352.131 57.5548 353.058 51.5951L351.082 51.2877C350.186 57.0468 348.39 60.8825 345.857 63.0325L347.151 64.5573ZM352.07 52.4414H361.494V50.4414H352.07V52.4414ZM428.975 74V75H429.975V74H428.975ZM419.551 74H418.551V75H419.551V74ZM419.551 41.1387H420.551V40.1387H419.551V41.1387ZM383.711 41.1387V40.1387H382.711V41.1387H383.711ZM383.711 74V75H384.711V74H383.711ZM374.336 74H373.336V75H374.336V74ZM374.336 2.90625V1.90625H373.336V2.90625H374.336ZM383.711 2.90625H384.711V1.90625H383.711V2.90625ZM383.711 33.4727H382.711V34.4727H383.711V33.4727ZM419.551 33.4727V34.4727H420.551V33.4727H419.551ZM419.551 2.90625V1.90625H418.551V2.90625H419.551ZM428.975 2.90625H429.975V1.90625H428.975V2.90625ZM428.975 73H419.551V75H428.975V73ZM420.551 74V41.1387H418.551V74H420.551ZM419.551 40.1387H383.711V42.1387H419.551V40.1387ZM382.711 41.1387V74H384.711V41.1387H382.711ZM383.711 73H374.336V75H383.711V73ZM375.336 74V2.90625H373.336V74H375.336ZM374.336 3.90625H383.711V1.90625H374.336V3.90625ZM382.711 2.90625V33.4727H384.711V2.90625H382.711ZM383.711 34.4727H419.551V32.4727H383.711V34.4727ZM420.551 33.4727V2.90625H418.551V33.4727H420.551ZM419.551 3.90625H428.975V1.90625H419.551V3.90625ZM427.975 2.90625V74H429.975V2.90625H427.975ZM94.502 191H93.502V192H94.502V191ZM94.502 119.906V118.906H93.502V119.906H94.502ZM135.127 124.691L134.491 125.463L134.494 125.466L135.127 124.691ZM138.154 147.689L138.957 148.286L138.96 148.281L138.154 147.689ZM130.439 153.598L130.044 152.679L127.442 153.798L130.17 154.561L130.439 153.598ZM139.521 159.75L138.714 160.34L138.721 160.35L139.521 159.75ZM136.689 185.531L136.028 184.781L136.689 185.531ZM103.877 157.748V156.748H102.877V157.748H103.877ZM103.877 183.334H102.877V184.334H103.877V183.334ZM129.658 179.965L130.326 180.71L130.326 180.709L129.658 179.965ZM103.877 150.229H102.877V151.229H103.877V150.229ZM127.852 147.152L127.213 146.382L127.208 146.387L127.852 147.152ZM128.145 130.307L127.527 131.093L127.534 131.098L128.145 130.307ZM103.877 127.621V126.621H102.877V127.621H103.877ZM95.502 191V119.906H93.502V191H95.502ZM94.502 120.906H117.744V118.906H94.502V120.906ZM117.744 120.906C125.346 120.906 130.871 122.482 134.491 125.463L135.763 123.919C131.636 120.521 125.572 118.906 117.744 118.906V120.906ZM134.494 125.466C138.113 128.421 139.986 132.823 139.986 138.852H141.986C141.986 132.38 139.953 127.342 135.759 123.917L134.494 125.466ZM139.986 138.852C139.986 141.968 139.105 144.705 137.348 147.098L138.96 148.281C140.98 145.531 141.986 142.375 141.986 138.852H139.986ZM137.352 147.093C135.581 149.474 133.158 151.34 130.044 152.679L130.834 154.516C134.232 153.056 136.951 150.983 138.957 148.286L137.352 147.093ZM130.17 154.561C133.81 155.579 136.642 157.506 138.714 160.34L140.329 159.16C137.974 155.939 134.751 153.765 130.709 152.635L130.17 154.561ZM138.721 160.35C140.823 163.152 141.891 166.516 141.891 170.492H143.891C143.891 166.135 142.712 162.337 140.321 159.15L138.721 160.35ZM141.891 170.492C141.891 176.635 139.912 181.356 136.028 184.781L137.351 186.281C141.735 182.415 143.891 177.109 143.891 170.492H141.891ZM136.028 184.781C132.135 188.215 126.559 190 119.16 190V192C126.865 192 132.976 190.139 137.351 186.281L136.028 184.781ZM119.16 190H94.502V192H119.16V190ZM102.877 157.748V183.334H104.877V157.748H102.877ZM103.877 184.334H119.355V182.334H103.877V184.334ZM119.355 184.334C123.889 184.334 127.587 183.164 130.326 180.71L128.991 179.22C126.717 181.258 123.546 182.334 119.355 182.334V184.334ZM130.326 180.709C133.112 178.209 134.467 174.794 134.467 170.59H132.467C132.467 174.328 131.283 177.163 128.99 179.221L130.326 180.709ZM134.467 170.59C134.467 166.133 133.251 162.612 130.652 160.222C128.07 157.847 124.291 156.748 119.502 156.748V158.748C124.023 158.748 127.227 159.789 129.299 161.695C131.355 163.585 132.467 166.486 132.467 170.59H134.467ZM119.502 156.748H103.877V158.748H119.502V156.748ZM103.877 151.229H118.037V149.229H103.877V151.229ZM118.037 151.229C122.305 151.229 125.827 150.159 128.495 147.918L127.208 146.387C124.994 148.247 121.972 149.229 118.037 149.229V151.229ZM128.49 147.922C131.216 145.662 132.562 142.584 132.562 138.803H130.562C130.562 142.052 129.435 144.541 127.213 146.382L128.49 147.922ZM132.562 138.803C132.562 134.705 131.36 131.524 128.755 129.515L127.534 131.098C129.486 132.605 130.562 135.088 130.562 138.803H132.562ZM128.762 129.52C126.229 127.53 122.497 126.621 117.744 126.621V128.621C122.301 128.621 125.503 129.503 127.527 131.093L128.762 129.52ZM117.744 126.621H103.877V128.621H117.744V126.621ZM102.877 127.621V150.229H104.877V127.621H102.877ZM207.979 176.01L208.889 176.422L208.89 176.42L207.979 176.01ZM168.086 187.875L167.547 188.718L167.552 188.72L168.086 187.875ZM157.979 176.107L157.072 176.529L157.075 176.536L157.979 176.107ZM154.316 158.383H153.316L153.316 158.393L154.316 158.383ZM167.939 123.129L168.478 123.972L168.48 123.97L167.939 123.129ZM197.92 123.08L197.381 123.923L197.389 123.927L197.92 123.08ZM207.979 135.043L207.066 135.451L207.067 135.453L207.979 135.043ZM197.09 133.773L196.289 134.373L196.291 134.375L197.09 133.773ZM168.867 133.773L168.069 133.171L168.069 133.172L168.867 133.773ZM163.643 152.523L162.643 152.511V152.523H163.643ZM168.77 177.035L167.961 177.624L167.966 177.631L168.77 177.035ZM197.041 177.426L197.839 178.029L197.841 178.026L197.041 177.426ZM202.168 158.432L203.168 158.443V158.432H202.168ZM210.494 157.748C210.494 164.603 209.341 170.545 207.067 175.599L208.89 176.42C211.304 171.058 212.494 164.825 212.494 157.748H210.494ZM207.068 175.597C204.794 180.617 201.595 184.413 197.481 187.031L198.554 188.719C203.034 185.868 206.475 181.754 208.889 176.422L207.068 175.597ZM197.481 187.031C193.364 189.651 188.542 190.977 182.979 190.977V192.977C188.873 192.977 194.078 191.568 198.554 188.719L197.481 187.031ZM182.979 190.977C177.55 190.977 172.775 189.654 168.62 187.03L167.552 188.72C172.056 191.565 177.209 192.977 182.979 192.977V190.977ZM168.624 187.032C164.468 184.376 161.218 180.604 158.882 175.679L157.075 176.536C159.556 181.767 163.045 185.84 167.547 188.718L168.624 187.032ZM158.885 175.686C156.579 170.726 155.38 164.963 155.316 158.373L153.316 158.393C153.383 165.214 154.625 171.267 157.072 176.529L158.885 175.686ZM155.316 158.383V153.256H153.316V158.383H155.316ZM155.316 153.256C155.316 146.536 156.484 140.643 158.792 135.554L156.97 134.728C154.525 140.12 153.316 146.304 153.316 153.256H155.316ZM158.792 135.554C161.098 130.467 164.331 126.622 168.478 123.972L167.401 122.286C162.889 125.17 159.416 129.332 156.97 134.728L158.792 135.554ZM168.48 123.97C172.667 121.283 177.457 119.93 182.881 119.93V117.93C177.106 117.93 171.935 119.376 167.399 122.287L168.48 123.97ZM182.881 119.93C188.408 119.93 193.23 121.27 197.381 123.923L198.458 122.237C193.951 119.357 188.747 117.93 182.881 117.93V119.93ZM197.389 123.927C201.564 126.545 204.793 130.37 207.066 135.451L208.891 134.635C206.476 129.235 203 125.084 198.451 122.233L197.389 123.927ZM207.067 135.453C209.341 140.508 210.494 146.434 210.494 153.256H212.494C212.494 146.21 211.303 139.995 208.89 134.633L207.067 135.453ZM210.494 153.256V157.748H212.494V153.256H210.494ZM203.168 153.158C203.168 144.613 201.455 137.905 197.888 133.172L196.291 134.375C199.495 138.627 201.168 144.841 201.168 153.158H203.168ZM197.891 133.174C194.3 128.375 189.255 125.986 182.881 125.986V127.986C188.681 127.986 193.109 130.122 196.289 134.373L197.891 133.174ZM182.881 125.986C176.659 125.986 171.686 128.383 168.069 133.171L169.665 134.376C172.884 130.114 177.254 127.986 182.881 127.986V125.986ZM168.069 133.172C164.511 137.892 162.742 144.378 162.643 152.511L164.643 152.536C164.739 144.653 166.453 138.639 169.666 134.375L168.069 133.172ZM162.643 152.523V157.748H164.643V152.523H162.643ZM162.643 157.748C162.643 166.046 164.377 172.708 167.962 177.624L169.578 176.446C166.326 171.987 164.643 165.791 164.643 157.748H162.643ZM167.966 177.631C171.614 182.552 176.654 185.018 182.979 185.018V183.018C177.258 183.018 172.826 180.829 169.573 176.44L167.966 177.631ZM182.979 185.018C189.311 185.018 194.309 182.701 197.839 178.029L196.243 176.823C193.132 180.94 188.756 183.018 182.979 183.018V185.018ZM197.841 178.026C201.337 173.364 203.069 166.793 203.168 158.443L201.168 158.42C201.072 166.542 199.385 172.633 196.241 176.826L197.841 178.026ZM203.168 158.432V153.158H201.168V158.432H203.168ZM276.729 176.01L277.639 176.422L277.64 176.42L276.729 176.01ZM236.836 187.875L236.297 188.718L236.302 188.72L236.836 187.875ZM226.729 176.107L225.822 176.529L225.825 176.536L226.729 176.107ZM223.066 158.383H222.066L222.066 158.393L223.066 158.383ZM236.689 123.129L237.228 123.972L237.23 123.97L236.689 123.129ZM266.67 123.08L266.131 123.923L266.139 123.927L266.67 123.08ZM276.729 135.043L275.816 135.451L275.817 135.453L276.729 135.043ZM265.84 133.773L265.039 134.373L265.041 134.375L265.84 133.773ZM237.617 133.773L236.819 133.171L236.819 133.172L237.617 133.773ZM232.393 152.523L231.393 152.511V152.523H232.393ZM237.52 177.035L236.711 177.624L236.716 177.631L237.52 177.035ZM265.791 177.426L266.589 178.029L266.591 178.026L265.791 177.426ZM270.918 158.432L271.918 158.443V158.432H270.918ZM279.244 157.748C279.244 164.603 278.091 170.545 275.817 175.599L277.64 176.42C280.054 171.058 281.244 164.825 281.244 157.748H279.244ZM275.818 175.597C273.544 180.617 270.345 184.413 266.231 187.031L267.304 188.719C271.784 185.868 275.225 181.754 277.639 176.422L275.818 175.597ZM266.231 187.031C262.114 189.651 257.292 190.977 251.729 190.977V192.977C257.623 192.977 262.828 191.568 267.304 188.719L266.231 187.031ZM251.729 190.977C246.3 190.977 241.525 189.654 237.37 187.03L236.302 188.72C240.806 191.565 245.959 192.977 251.729 192.977V190.977ZM237.374 187.032C233.218 184.376 229.968 180.604 227.632 175.679L225.825 176.536C228.306 181.767 231.795 185.84 236.297 188.718L237.374 187.032ZM227.635 175.686C225.329 170.726 224.13 164.963 224.066 158.373L222.066 158.393C222.133 165.214 223.375 171.267 225.822 176.529L227.635 175.686ZM224.066 158.383V153.256H222.066V158.383H224.066ZM224.066 153.256C224.066 146.536 225.234 140.643 227.542 135.554L225.72 134.728C223.275 140.12 222.066 146.304 222.066 153.256H224.066ZM227.542 135.554C229.848 130.467 233.081 126.622 237.228 123.972L236.151 122.286C231.639 125.17 228.166 129.332 225.72 134.728L227.542 135.554ZM237.23 123.97C241.417 121.283 246.207 119.93 251.631 119.93V117.93C245.856 117.93 240.685 119.376 236.149 122.287L237.23 123.97ZM251.631 119.93C257.158 119.93 261.98 121.27 266.131 123.923L267.208 122.237C262.701 119.357 257.497 117.93 251.631 117.93V119.93ZM266.139 123.927C270.314 126.545 273.543 130.37 275.816 135.451L277.641 134.635C275.226 129.235 271.75 125.084 267.201 122.233L266.139 123.927ZM275.817 135.453C278.091 140.508 279.244 146.434 279.244 153.256H281.244C281.244 146.21 280.053 139.995 277.64 134.633L275.817 135.453ZM279.244 153.256V157.748H281.244V153.256H279.244ZM271.918 153.158C271.918 144.613 270.205 137.905 266.638 133.172L265.041 134.375C268.245 138.627 269.918 144.841 269.918 153.158H271.918ZM266.641 133.174C263.05 128.375 258.005 125.986 251.631 125.986V127.986C257.431 127.986 261.859 130.122 265.039 134.373L266.641 133.174ZM251.631 125.986C245.409 125.986 240.436 128.383 236.819 133.171L238.415 134.376C241.634 130.114 246.004 127.986 251.631 127.986V125.986ZM236.819 133.172C233.261 137.892 231.492 144.378 231.393 152.511L233.393 152.536C233.489 144.653 235.203 138.639 238.416 134.375L236.819 133.172ZM231.393 152.523V157.748H233.393V152.523H231.393ZM231.393 157.748C231.393 166.046 233.127 172.708 236.712 177.624L238.328 176.446C235.076 171.987 233.393 165.791 233.393 157.748H231.393ZM236.716 177.631C240.364 182.552 245.404 185.018 251.729 185.018V183.018C246.008 183.018 241.576 180.829 238.323 176.44L236.716 177.631ZM251.729 185.018C258.061 185.018 263.059 182.701 266.589 178.029L264.993 176.823C261.882 180.94 257.506 183.018 251.729 183.018V185.018ZM266.591 178.026C270.087 173.364 271.819 166.793 271.918 158.443L269.918 158.42C269.822 166.542 268.135 172.633 264.991 176.826L266.591 178.026ZM271.918 158.432V153.158H269.918V158.432H271.918ZM312.373 157.943L313.168 157.337L312.461 156.409L311.652 157.25L312.373 157.943ZM303.682 166.977L302.961 166.283L302.682 166.574V166.977H303.682ZM303.682 191V192H304.682V191H303.682ZM294.307 191H293.307V192H294.307V191ZM294.307 119.906V118.906H293.307V119.906H294.307ZM303.682 119.906H304.682V118.906H303.682V119.906ZM303.682 155.062H302.682V157.671L304.425 155.731L303.682 155.062ZM335.273 119.906V118.906H334.828L334.53 119.238L335.273 119.906ZM346.602 119.906L347.348 120.572L348.832 118.906H346.602V119.906ZM318.623 151.303L317.876 150.637L317.329 151.252L317.827 151.908L318.623 151.303ZM348.799 191V192H350.815L349.595 190.395L348.799 191ZM337.568 191L336.773 191.606L337.073 192H337.568V191ZM311.652 157.25L302.961 166.283L304.402 167.67L313.094 158.637L311.652 157.25ZM302.682 166.977V191H304.682V166.977H302.682ZM303.682 190H294.307V192H303.682V190ZM295.307 191V119.906H293.307V191H295.307ZM294.307 120.906H303.682V118.906H294.307V120.906ZM302.682 119.906V155.062H304.682V119.906H302.682ZM304.425 155.731L336.017 120.575L334.53 119.238L302.938 154.394L304.425 155.731ZM335.273 120.906H346.602V118.906H335.273V120.906ZM345.855 119.241L317.876 150.637L319.37 151.968L347.348 120.572L345.855 119.241ZM317.827 151.908L348.003 191.605L349.595 190.395L319.419 150.698L317.827 151.908ZM348.799 190H337.568V192H348.799V190ZM338.364 190.394L313.168 157.337L311.578 158.55L336.773 191.606L338.364 190.394Z" fill="black"/>
</svg>
